<mxfile host="app.diagrams.net" agent="Mozilla/5.0 (Windows NT 10.0; Win64; x64) AppleWebKit/537.36 (KHTML, like Gecko) Chrome/130.0.0.0 Safari/537.36" version="24.8.4">
  <diagram name="페이지-1" id="HsaKV4gtXQu6MExX4XXO">
    <mxGraphModel dx="1472" dy="789" grid="0" gridSize="10" guides="1" tooltips="1" connect="1" arrows="1" fold="1" page="1" pageScale="1" pageWidth="827" pageHeight="1169" math="0" shadow="0">
      <root>
        <mxCell id="0" />
        <mxCell id="1" parent="0" />
        <mxCell id="0cJVXcnjKd404yUIvlML-6" style="edgeStyle=orthogonalEdgeStyle;rounded=0;orthogonalLoop=1;jettySize=auto;html=1;exitX=0.5;exitY=1;exitDx=0;exitDy=0;endArrow=none;endFill=0;" parent="1" source="0cJVXcnjKd404yUIvlML-1" edge="1">
          <mxGeometry relative="1" as="geometry">
            <mxPoint x="180" y="680" as="targetPoint" />
          </mxGeometry>
        </mxCell>
        <mxCell id="0cJVXcnjKd404yUIvlML-1" value="MESIPX" style="rounded=0;whiteSpace=wrap;html=1;" parent="1" vertex="1">
          <mxGeometry x="140" y="80" width="80" height="40" as="geometry" />
        </mxCell>
        <mxCell id="0cJVXcnjKd404yUIvlML-2" value="LRF" style="rounded=0;whiteSpace=wrap;html=1;" parent="1" vertex="1">
          <mxGeometry x="300" y="80" width="80" height="40" as="geometry" />
        </mxCell>
        <mxCell id="0cJVXcnjKd404yUIvlML-3" value="PSAP" style="rounded=0;whiteSpace=wrap;html=1;" parent="1" vertex="1">
          <mxGeometry x="460" y="80" width="80" height="40" as="geometry" />
        </mxCell>
        <mxCell id="0cJVXcnjKd404yUIvlML-5" value="OFCS" style="rounded=0;whiteSpace=wrap;html=1;" parent="1" vertex="1">
          <mxGeometry x="620" y="80" width="80" height="40" as="geometry" />
        </mxCell>
        <mxCell id="0cJVXcnjKd404yUIvlML-7" style="edgeStyle=orthogonalEdgeStyle;rounded=0;orthogonalLoop=1;jettySize=auto;html=1;endArrow=none;endFill=0;exitX=0.5;exitY=1;exitDx=0;exitDy=0;" parent="1" source="0cJVXcnjKd404yUIvlML-2" edge="1">
          <mxGeometry relative="1" as="geometry">
            <mxPoint x="340" y="680" as="targetPoint" />
            <mxPoint x="330" y="200" as="sourcePoint" />
          </mxGeometry>
        </mxCell>
        <mxCell id="0cJVXcnjKd404yUIvlML-8" style="edgeStyle=orthogonalEdgeStyle;rounded=0;orthogonalLoop=1;jettySize=auto;html=1;endArrow=none;endFill=0;exitX=0.5;exitY=1;exitDx=0;exitDy=0;" parent="1" source="0cJVXcnjKd404yUIvlML-3" edge="1">
          <mxGeometry relative="1" as="geometry">
            <mxPoint x="500" y="680" as="targetPoint" />
            <mxPoint x="500" y="150" as="sourcePoint" />
          </mxGeometry>
        </mxCell>
        <mxCell id="0cJVXcnjKd404yUIvlML-9" style="edgeStyle=orthogonalEdgeStyle;rounded=0;orthogonalLoop=1;jettySize=auto;html=1;endArrow=none;endFill=0;exitX=0.5;exitY=1;exitDx=0;exitDy=0;" parent="1" source="0cJVXcnjKd404yUIvlML-5" edge="1">
          <mxGeometry relative="1" as="geometry">
            <mxPoint x="660" y="680" as="targetPoint" />
            <mxPoint x="650" y="180" as="sourcePoint" />
          </mxGeometry>
        </mxCell>
        <mxCell id="0cJVXcnjKd404yUIvlML-10" value="INVITE&lt;div&gt;urn:service:sos&lt;/div&gt;" style="endArrow=classic;html=1;rounded=0;strokeColor=default;align=center;verticalAlign=middle;fontFamily=Helvetica;fontSize=11;fontColor=default;labelBackgroundColor=default;edgeStyle=orthogonalEdgeStyle;" parent="1" edge="1">
          <mxGeometry width="50" height="50" relative="1" as="geometry">
            <mxPoint x="70" y="160" as="sourcePoint" />
            <mxPoint x="180" y="160" as="targetPoint" />
          </mxGeometry>
        </mxCell>
        <mxCell id="0cJVXcnjKd404yUIvlML-11" value="INVITE&lt;div&gt;urn:service:sos&lt;/div&gt;" style="endArrow=classic;html=1;rounded=0;strokeColor=default;align=center;verticalAlign=middle;fontFamily=Helvetica;fontSize=11;fontColor=default;labelBackgroundColor=default;edgeStyle=orthogonalEdgeStyle;" parent="1" edge="1">
          <mxGeometry width="50" height="50" relative="1" as="geometry">
            <mxPoint x="180" y="180" as="sourcePoint" />
            <mxPoint x="340" y="180" as="targetPoint" />
          </mxGeometry>
        </mxCell>
        <mxCell id="0cJVXcnjKd404yUIvlML-12" value="305 USE PROXY" style="endArrow=classic;html=1;rounded=0;strokeColor=default;align=center;verticalAlign=middle;fontFamily=Helvetica;fontSize=11;fontColor=default;labelBackgroundColor=default;edgeStyle=orthogonalEdgeStyle;" parent="1" edge="1">
          <mxGeometry width="50" height="50" relative="1" as="geometry">
            <mxPoint x="340" y="200" as="sourcePoint" />
            <mxPoint x="180" y="200" as="targetPoint" />
          </mxGeometry>
        </mxCell>
        <mxCell id="0cJVXcnjKd404yUIvlML-13" value="INVITE&lt;div&gt;urn:service:sos&lt;/div&gt;" style="endArrow=classic;html=1;rounded=0;strokeColor=default;align=center;verticalAlign=middle;fontFamily=Helvetica;fontSize=11;fontColor=default;labelBackgroundColor=default;edgeStyle=orthogonalEdgeStyle;" parent="1" edge="1">
          <mxGeometry x="0.5" width="50" height="50" relative="1" as="geometry">
            <mxPoint x="180" y="220" as="sourcePoint" />
            <mxPoint x="500" y="220" as="targetPoint" />
            <mxPoint as="offset" />
          </mxGeometry>
        </mxCell>
        <mxCell id="0cJVXcnjKd404yUIvlML-14" value="200 OK" style="endArrow=classic;html=1;rounded=0;strokeColor=default;align=center;verticalAlign=middle;fontFamily=Helvetica;fontSize=11;fontColor=default;labelBackgroundColor=default;edgeStyle=orthogonalEdgeStyle;" parent="1" edge="1">
          <mxGeometry x="-0.5" width="50" height="50" relative="1" as="geometry">
            <mxPoint x="500" y="240" as="sourcePoint" />
            <mxPoint x="180" y="240" as="targetPoint" />
            <mxPoint as="offset" />
          </mxGeometry>
        </mxCell>
        <mxCell id="0cJVXcnjKd404yUIvlML-15" value="Call DB INSERT" style="rounded=0;whiteSpace=wrap;html=1;fontFamily=Helvetica;fontSize=11;fontColor=default;labelBackgroundColor=default;" parent="1" vertex="1">
          <mxGeometry x="130" y="250" width="100" height="20" as="geometry" />
        </mxCell>
        <mxCell id="0cJVXcnjKd404yUIvlML-16" value="SESSION CDR 생성" style="rounded=0;whiteSpace=wrap;html=1;fontFamily=Helvetica;fontSize=11;fontColor=default;labelBackgroundColor=default;" parent="1" vertex="1">
          <mxGeometry x="120" y="280" width="120" height="20" as="geometry" />
        </mxCell>
        <mxCell id="0cJVXcnjKd404yUIvlML-17" value="Accounting-Request START_CDR" style="endArrow=classic;html=1;rounded=0;strokeColor=default;align=center;verticalAlign=middle;fontFamily=Helvetica;fontSize=11;fontColor=default;labelBackgroundColor=default;edgeStyle=orthogonalEdgeStyle;" parent="1" edge="1">
          <mxGeometry x="0.5" width="50" height="50" relative="1" as="geometry">
            <mxPoint x="180" y="310" as="sourcePoint" />
            <mxPoint x="660" y="310" as="targetPoint" />
            <mxPoint as="offset" />
          </mxGeometry>
        </mxCell>
        <mxCell id="0cJVXcnjKd404yUIvlML-18" value="Accounting-Answer" style="endArrow=classic;html=1;rounded=0;strokeColor=default;align=center;verticalAlign=middle;fontFamily=Helvetica;fontSize=11;fontColor=default;labelBackgroundColor=default;edgeStyle=orthogonalEdgeStyle;" parent="1" edge="1">
          <mxGeometry x="-0.5" width="50" height="50" relative="1" as="geometry">
            <mxPoint x="660" y="330" as="sourcePoint" />
            <mxPoint x="180" y="330" as="targetPoint" />
            <mxPoint as="offset" />
          </mxGeometry>
        </mxCell>
        <mxCell id="0cJVXcnjKd404yUIvlML-19" value="&lt;div&gt;INVITE Trct 에만&lt;/div&gt;&lt;div&gt;bSessionCDR flag = TURE 설정&lt;/div&gt;" style="rounded=0;whiteSpace=wrap;html=1;fontFamily=Helvetica;fontSize=11;labelBackgroundColor=#FFF2CC;fillColor=#fff2cc;strokeColor=default;" parent="1" vertex="1">
          <mxGeometry x="90" y="340" width="180" height="30" as="geometry" />
        </mxCell>
        <mxCell id="0cJVXcnjKd404yUIvlML-20" value="200 OK" style="endArrow=classic;html=1;rounded=0;strokeColor=default;align=center;verticalAlign=middle;fontFamily=Helvetica;fontSize=11;fontColor=default;labelBackgroundColor=default;edgeStyle=orthogonalEdgeStyle;" parent="1" edge="1">
          <mxGeometry width="50" height="50" relative="1" as="geometry">
            <mxPoint x="180" y="380" as="sourcePoint" />
            <mxPoint x="70" y="381" as="targetPoint" />
          </mxGeometry>
        </mxCell>
        <mxCell id="0cJVXcnjKd404yUIvlML-21" value="Re-INVITE&lt;div&gt;urn:service:sos&lt;/div&gt;" style="endArrow=classic;html=1;rounded=0;strokeColor=default;align=center;verticalAlign=middle;fontFamily=Helvetica;fontSize=11;fontColor=default;labelBackgroundColor=default;edgeStyle=orthogonalEdgeStyle;" parent="1" edge="1">
          <mxGeometry width="50" height="50" relative="1" as="geometry">
            <mxPoint x="70" y="430" as="sourcePoint" />
            <mxPoint x="180" y="430" as="targetPoint" />
          </mxGeometry>
        </mxCell>
        <mxCell id="0cJVXcnjKd404yUIvlML-24" value="Re-INVITE&lt;div&gt;urn:service:sos&lt;/div&gt;" style="endArrow=classic;html=1;rounded=0;strokeColor=default;align=center;verticalAlign=middle;fontFamily=Helvetica;fontSize=11;fontColor=default;labelBackgroundColor=default;edgeStyle=orthogonalEdgeStyle;" parent="1" edge="1">
          <mxGeometry x="0.5" width="50" height="50" relative="1" as="geometry">
            <mxPoint x="180" y="480" as="sourcePoint" />
            <mxPoint x="500" y="480" as="targetPoint" />
            <mxPoint as="offset" />
          </mxGeometry>
        </mxCell>
        <mxCell id="0cJVXcnjKd404yUIvlML-25" value="200 OK" style="endArrow=classic;html=1;rounded=0;strokeColor=default;align=center;verticalAlign=middle;fontFamily=Helvetica;fontSize=11;fontColor=default;labelBackgroundColor=default;edgeStyle=orthogonalEdgeStyle;" parent="1" edge="1">
          <mxGeometry x="-0.5" width="50" height="50" relative="1" as="geometry">
            <mxPoint x="500" y="500" as="sourcePoint" />
            <mxPoint x="180" y="500" as="targetPoint" />
            <mxPoint as="offset" />
          </mxGeometry>
        </mxCell>
        <mxCell id="0cJVXcnjKd404yUIvlML-26" value="Call DB UPDATE" style="rounded=0;whiteSpace=wrap;html=1;fontFamily=Helvetica;fontSize=11;fontColor=default;labelBackgroundColor=default;" parent="1" vertex="1">
          <mxGeometry x="130" y="450" width="100" height="20" as="geometry" />
        </mxCell>
        <mxCell id="0cJVXcnjKd404yUIvlML-30" value="Re-INVITE Trct 에는&lt;div&gt;bSessionCDR flag = FALSE&lt;/div&gt;" style="rounded=0;whiteSpace=wrap;html=1;fontFamily=Helvetica;fontSize=11;labelBackgroundColor=#FFF2CC;fillColor=#fff2cc;strokeColor=default;" parent="1" vertex="1">
          <mxGeometry x="90" y="510" width="180" height="30" as="geometry" />
        </mxCell>
        <mxCell id="0cJVXcnjKd404yUIvlML-32" value="&lt;font color=&quot;#ff0000&quot;&gt;&lt;b&gt;INVITE Trct 종료시 bSessionCDR Flag == FALSE 이면&lt;/b&gt;&lt;/font&gt;&lt;div&gt;&lt;font color=&quot;#ff0000&quot;&gt;&lt;b&gt;호처리 에러로 판단하여 비정상 EVENT CDR 생성&lt;/b&gt;&lt;/font&gt;&lt;/div&gt;" style="rounded=0;whiteSpace=wrap;html=1;fontFamily=Helvetica;fontSize=11;labelBackgroundColor=#FFF2CC;fillColor=#fff2cc;strokeColor=default;" parent="1" vertex="1">
          <mxGeometry x="40" y="550" width="280" height="40" as="geometry" />
        </mxCell>
        <mxCell id="0cJVXcnjKd404yUIvlML-33" value="&lt;font color=&quot;#ff0000&quot;&gt;Accounting-Request START_CDR&lt;/font&gt;" style="endArrow=classic;html=1;rounded=0;strokeColor=default;align=center;verticalAlign=middle;fontFamily=Helvetica;fontSize=11;fontColor=default;labelBackgroundColor=default;edgeStyle=orthogonalEdgeStyle;" parent="1" edge="1">
          <mxGeometry x="0.5" width="50" height="50" relative="1" as="geometry">
            <mxPoint x="180" y="600" as="sourcePoint" />
            <mxPoint x="660" y="600" as="targetPoint" />
            <mxPoint as="offset" />
          </mxGeometry>
        </mxCell>
        <mxCell id="0cJVXcnjKd404yUIvlML-34" value="Accounting-Answer" style="endArrow=classic;html=1;rounded=0;strokeColor=default;align=center;verticalAlign=middle;fontFamily=Helvetica;fontSize=11;fontColor=default;labelBackgroundColor=default;edgeStyle=orthogonalEdgeStyle;" parent="1" edge="1">
          <mxGeometry x="-0.5" width="50" height="50" relative="1" as="geometry">
            <mxPoint x="660" y="620" as="sourcePoint" />
            <mxPoint x="180" y="620" as="targetPoint" />
            <mxPoint as="offset" />
          </mxGeometry>
        </mxCell>
        <mxCell id="fr2JG_WPuw4Xb1J1Nvzu-1" style="edgeStyle=orthogonalEdgeStyle;rounded=0;orthogonalLoop=1;jettySize=auto;html=1;exitX=0.5;exitY=1;exitDx=0;exitDy=0;endArrow=none;endFill=0;" edge="1" parent="1" source="fr2JG_WPuw4Xb1J1Nvzu-2">
          <mxGeometry relative="1" as="geometry">
            <mxPoint x="947.5" y="680" as="targetPoint" />
          </mxGeometry>
        </mxCell>
        <mxCell id="fr2JG_WPuw4Xb1J1Nvzu-2" value="iPhone UE&lt;div&gt;&lt;font color=&quot;#ff0000&quot; style=&quot;font-size: 9px;&quot;&gt;(TTA-VoLTE/2.0 iOS/15.5)&lt;/font&gt;&lt;/div&gt;" style="rounded=0;whiteSpace=wrap;html=1;" vertex="1" parent="1">
          <mxGeometry x="889" y="80" width="117" height="40" as="geometry" />
        </mxCell>
        <mxCell id="fr2JG_WPuw4Xb1J1Nvzu-3" value="P-CSCF" style="rounded=0;whiteSpace=wrap;html=1;" vertex="1" parent="1">
          <mxGeometry x="1067.5" y="80" width="80" height="40" as="geometry" />
        </mxCell>
        <mxCell id="fr2JG_WPuw4Xb1J1Nvzu-5" value="HSS" style="rounded=0;whiteSpace=wrap;html=1;" vertex="1" parent="1">
          <mxGeometry x="1387.5" y="80" width="80" height="40" as="geometry" />
        </mxCell>
        <mxCell id="fr2JG_WPuw4Xb1J1Nvzu-6" style="edgeStyle=orthogonalEdgeStyle;rounded=0;orthogonalLoop=1;jettySize=auto;html=1;endArrow=none;endFill=0;exitX=0.5;exitY=1;exitDx=0;exitDy=0;" edge="1" parent="1" source="fr2JG_WPuw4Xb1J1Nvzu-3">
          <mxGeometry relative="1" as="geometry">
            <mxPoint x="1107.5" y="680" as="targetPoint" />
            <mxPoint x="1097.5" y="200" as="sourcePoint" />
          </mxGeometry>
        </mxCell>
        <mxCell id="fr2JG_WPuw4Xb1J1Nvzu-7" style="edgeStyle=orthogonalEdgeStyle;rounded=0;orthogonalLoop=1;jettySize=auto;html=1;endArrow=none;endFill=0;exitX=0.5;exitY=1;exitDx=0;exitDy=0;" edge="1" parent="1" source="fr2JG_WPuw4Xb1J1Nvzu-140">
          <mxGeometry relative="1" as="geometry">
            <mxPoint x="1267.5" y="680" as="targetPoint" />
            <mxPoint x="1267.5" y="120" as="sourcePoint" />
          </mxGeometry>
        </mxCell>
        <mxCell id="fr2JG_WPuw4Xb1J1Nvzu-8" style="edgeStyle=orthogonalEdgeStyle;rounded=0;orthogonalLoop=1;jettySize=auto;html=1;endArrow=none;endFill=0;exitX=0.5;exitY=1;exitDx=0;exitDy=0;" edge="1" parent="1" source="fr2JG_WPuw4Xb1J1Nvzu-5">
          <mxGeometry relative="1" as="geometry">
            <mxPoint x="1427.5" y="680" as="targetPoint" />
            <mxPoint x="1417.5" y="180" as="sourcePoint" />
          </mxGeometry>
        </mxCell>
        <mxCell id="fr2JG_WPuw4Xb1J1Nvzu-10" value="Unprotected-REGI(IPSEC)&lt;div&gt;&lt;font color=&quot;#ff0000&quot;&gt;PANI(X), expires=3600&lt;/font&gt;&lt;/div&gt;" style="endArrow=classic;html=1;rounded=0;strokeColor=default;align=center;verticalAlign=middle;fontFamily=Helvetica;fontSize=11;fontColor=default;labelBackgroundColor=default;edgeStyle=orthogonalEdgeStyle;" edge="1" parent="1">
          <mxGeometry width="50" height="50" relative="1" as="geometry">
            <mxPoint x="947.5" y="180" as="sourcePoint" />
            <mxPoint x="1107.5" y="180" as="targetPoint" />
          </mxGeometry>
        </mxCell>
        <mxCell id="fr2JG_WPuw4Xb1J1Nvzu-14" value="&lt;b&gt;SA 생성&lt;/b&gt;" style="rounded=0;whiteSpace=wrap;html=1;fontFamily=Helvetica;fontSize=11;fontColor=default;labelBackgroundColor=default;" vertex="1" parent="1">
          <mxGeometry x="934.5" y="250" width="188" height="20" as="geometry" />
        </mxCell>
        <mxCell id="fr2JG_WPuw4Xb1J1Nvzu-23" value="&lt;font style=&quot;font-size: 10px;&quot;&gt;1. INIT-REGI 판단 &amp;amp;&lt;/font&gt;&lt;div style=&quot;font-size: 10px;&quot;&gt;&lt;font style=&quot;font-size: 10px;&quot;&gt;2. Integrity-protected=yes &amp;amp;&lt;/font&gt;&lt;/div&gt;&lt;div style=&quot;font-size: 10px;&quot;&gt;&lt;font style=&quot;font-size: 10px;&quot;&gt;3. MCC/MNC 별 로밍 ipsec off 판단 (DB)&lt;br&gt;-&amp;gt; 위의 조건 만족시&lt;/font&gt;&lt;/div&gt;&lt;div style=&quot;font-size: 10px;&quot;&gt;&lt;font style=&quot;font-size: 10px;&quot;&gt;4. DB Binding 의 avail_util 및 200 OK&amp;nbsp; Contact 의&lt;br&gt;expires 값에 설정된 ipsec_off_roam_reg_expires&lt;br&gt;값 세팅 후 전송&lt;/font&gt;&lt;/div&gt;" style="rounded=0;whiteSpace=wrap;html=1;fontFamily=Helvetica;fontSize=11;fontColor=default;labelBackgroundColor=default;align=left;" vertex="1" parent="1">
          <mxGeometry x="1154.5" y="360" width="230.5" height="103" as="geometry" />
        </mxCell>
        <mxCell id="fr2JG_WPuw4Xb1J1Nvzu-24" value="짧은 RE-REGI 유도" style="rounded=0;whiteSpace=wrap;html=1;fontFamily=Helvetica;fontSize=11;labelBackgroundColor=#FFF2CC;fillColor=#fff2cc;strokeColor=default;" vertex="1" parent="1">
          <mxGeometry x="1098.5" y="533" width="180" height="23" as="geometry" />
        </mxCell>
        <mxCell id="fr2JG_WPuw4Xb1J1Nvzu-25" value="&lt;font color=&quot;#ff0000&quot;&gt;&lt;b&gt;생성한 DB Binding 의&lt;br&gt;avail_until = ipsec_off_roam-reg_expires&lt;/b&gt;&lt;/font&gt;" style="rounded=1;whiteSpace=wrap;html=1;fontFamily=Helvetica;fontSize=11;labelBackgroundColor=#FFF2CC;fillColor=#fff2cc;strokeColor=default;" vertex="1" parent="1">
          <mxGeometry x="1127.5" y="480" width="280" height="40" as="geometry" />
        </mxCell>
        <mxCell id="fr2JG_WPuw4Xb1J1Nvzu-28" value="Unprotected-REGI(IPSEC)&lt;div&gt;&lt;font color=&quot;#ff0000&quot;&gt;PANI(X), expires=3600&lt;/font&gt;&lt;/div&gt;" style="endArrow=classic;html=1;rounded=0;strokeColor=default;align=center;verticalAlign=middle;fontFamily=Helvetica;fontSize=11;fontColor=default;labelBackgroundColor=default;edgeStyle=orthogonalEdgeStyle;" edge="1" parent="1">
          <mxGeometry width="50" height="50" relative="1" as="geometry">
            <mxPoint x="1107.5" y="180" as="sourcePoint" />
            <mxPoint x="1267.5" y="180" as="targetPoint" />
          </mxGeometry>
        </mxCell>
        <mxCell id="fr2JG_WPuw4Xb1J1Nvzu-29" value="MAR" style="endArrow=classic;html=1;rounded=0;strokeColor=default;align=center;verticalAlign=middle;fontFamily=Helvetica;fontSize=11;fontColor=default;labelBackgroundColor=default;edgeStyle=orthogonalEdgeStyle;" edge="1" parent="1">
          <mxGeometry y="9" width="50" height="50" relative="1" as="geometry">
            <mxPoint x="1267.5" y="180" as="sourcePoint" />
            <mxPoint x="1427.5" y="180" as="targetPoint" />
            <mxPoint as="offset" />
          </mxGeometry>
        </mxCell>
        <mxCell id="fr2JG_WPuw4Xb1J1Nvzu-30" value="MAA" style="endArrow=classic;html=1;rounded=0;strokeColor=default;align=center;verticalAlign=middle;fontFamily=Helvetica;fontSize=11;fontColor=default;labelBackgroundColor=default;edgeStyle=orthogonalEdgeStyle;" edge="1" parent="1">
          <mxGeometry y="-10" width="50" height="50" relative="1" as="geometry">
            <mxPoint x="1427.5" y="226" as="sourcePoint" />
            <mxPoint x="1267.5" y="226" as="targetPoint" />
            <mxPoint as="offset" />
          </mxGeometry>
        </mxCell>
        <mxCell id="fr2JG_WPuw4Xb1J1Nvzu-31" value="401 UNAUTHORIZED" style="endArrow=classic;html=1;rounded=0;strokeColor=default;align=center;verticalAlign=middle;fontFamily=Helvetica;fontSize=11;fontColor=default;labelBackgroundColor=default;edgeStyle=orthogonalEdgeStyle;" edge="1" parent="1">
          <mxGeometry y="-10" width="50" height="50" relative="1" as="geometry">
            <mxPoint x="1267.5" y="226" as="sourcePoint" />
            <mxPoint x="1107.5" y="226" as="targetPoint" />
            <mxPoint as="offset" />
          </mxGeometry>
        </mxCell>
        <mxCell id="fr2JG_WPuw4Xb1J1Nvzu-32" value="401 UNAUTHORIZED" style="endArrow=classic;html=1;rounded=0;strokeColor=default;align=center;verticalAlign=middle;fontFamily=Helvetica;fontSize=11;fontColor=default;labelBackgroundColor=default;edgeStyle=orthogonalEdgeStyle;" edge="1" parent="1">
          <mxGeometry y="-10" width="50" height="50" relative="1" as="geometry">
            <mxPoint x="1107.5" y="226" as="sourcePoint" />
            <mxPoint x="947.5" y="226" as="targetPoint" />
            <mxPoint as="offset" />
          </mxGeometry>
        </mxCell>
        <mxCell id="fr2JG_WPuw4Xb1J1Nvzu-34" value="Pretected-REGI(IPSEC)&lt;div&gt;PANI(O,MCC/MNC:23415)&lt;/div&gt;" style="endArrow=classic;html=1;rounded=0;strokeColor=default;align=center;verticalAlign=middle;fontFamily=Helvetica;fontSize=11;fontColor=default;labelBackgroundColor=default;edgeStyle=orthogonalEdgeStyle;" edge="1" parent="1">
          <mxGeometry width="50" height="50" relative="1" as="geometry">
            <mxPoint x="947.5" y="293" as="sourcePoint" />
            <mxPoint x="1107.5" y="293" as="targetPoint" />
          </mxGeometry>
        </mxCell>
        <mxCell id="fr2JG_WPuw4Xb1J1Nvzu-35" value="Pretected-REGI(IPSEC)&lt;div&gt;PANI(O)&lt;/div&gt;" style="endArrow=classic;html=1;rounded=0;strokeColor=default;align=center;verticalAlign=middle;fontFamily=Helvetica;fontSize=11;fontColor=default;labelBackgroundColor=default;edgeStyle=orthogonalEdgeStyle;" edge="1" parent="1">
          <mxGeometry width="50" height="50" relative="1" as="geometry">
            <mxPoint x="1107.5" y="293" as="sourcePoint" />
            <mxPoint x="1267.5" y="293" as="targetPoint" />
          </mxGeometry>
        </mxCell>
        <mxCell id="fr2JG_WPuw4Xb1J1Nvzu-36" value="SAR" style="endArrow=classic;html=1;rounded=0;strokeColor=default;align=center;verticalAlign=middle;fontFamily=Helvetica;fontSize=11;fontColor=default;labelBackgroundColor=default;edgeStyle=orthogonalEdgeStyle;" edge="1" parent="1">
          <mxGeometry y="9" width="50" height="50" relative="1" as="geometry">
            <mxPoint x="1267.5" y="293.74" as="sourcePoint" />
            <mxPoint x="1427.5" y="293.74" as="targetPoint" />
            <mxPoint as="offset" />
          </mxGeometry>
        </mxCell>
        <mxCell id="fr2JG_WPuw4Xb1J1Nvzu-37" value="SAA" style="endArrow=classic;html=1;rounded=0;strokeColor=default;align=center;verticalAlign=middle;fontFamily=Helvetica;fontSize=11;fontColor=default;labelBackgroundColor=default;edgeStyle=orthogonalEdgeStyle;" edge="1" parent="1">
          <mxGeometry y="-10" width="50" height="50" relative="1" as="geometry">
            <mxPoint x="1427.5" y="339.74" as="sourcePoint" />
            <mxPoint x="1267.5" y="339.74" as="targetPoint" />
            <mxPoint as="offset" />
          </mxGeometry>
        </mxCell>
        <mxCell id="fr2JG_WPuw4Xb1J1Nvzu-38" value="&lt;font style=&quot;font-size: 10px;&quot;&gt;200 OK&lt;/font&gt;&lt;div style=&quot;font-size: 10px;&quot;&gt;&lt;font style=&quot;font-size: 10px;&quot; color=&quot;#ff0000&quot;&gt;Contact : xxxxxx;&lt;b style=&quot;&quot;&gt;expires=60&lt;/b&gt;&lt;/font&gt;&lt;/div&gt;" style="endArrow=classic;html=1;rounded=0;strokeColor=default;align=left;verticalAlign=middle;fontFamily=Helvetica;fontSize=11;fontColor=default;labelBackgroundColor=default;edgeStyle=orthogonalEdgeStyle;" edge="1" parent="1">
          <mxGeometry x="0.8278" width="50" height="50" relative="1" as="geometry">
            <mxPoint x="1267.5" y="585" as="sourcePoint" />
            <mxPoint x="1107.5" y="585" as="targetPoint" />
            <mxPoint as="offset" />
          </mxGeometry>
        </mxCell>
        <mxCell id="fr2JG_WPuw4Xb1J1Nvzu-39" value="&lt;font style=&quot;font-size: 10px;&quot;&gt;200 OK&lt;/font&gt;&lt;div style=&quot;font-size: 10px;&quot;&gt;&lt;font style=&quot;font-size: 10px;&quot; color=&quot;#ff0000&quot;&gt;Contact : xxxxxx;&lt;b style=&quot;&quot;&gt;expires=60&lt;/b&gt;&lt;/font&gt;&lt;/div&gt;" style="endArrow=classic;html=1;rounded=0;strokeColor=default;align=left;verticalAlign=middle;fontFamily=Helvetica;fontSize=11;fontColor=default;labelBackgroundColor=default;edgeStyle=orthogonalEdgeStyle;" edge="1" parent="1">
          <mxGeometry x="0.8278" width="50" height="50" relative="1" as="geometry">
            <mxPoint x="1107.5" y="585" as="sourcePoint" />
            <mxPoint x="947.5" y="585" as="targetPoint" />
            <mxPoint as="offset" />
          </mxGeometry>
        </mxCell>
        <mxCell id="fr2JG_WPuw4Xb1J1Nvzu-40" value="&lt;font color=&quot;#ff0000&quot;&gt;&lt;b&gt;ipsec_off_roam_reg_expires 설정값 이내에 &lt;br&gt;Re-REGI 미수신시 해당 DB Binding Timeout 삭제&lt;/b&gt;&lt;/font&gt;" style="rounded=1;whiteSpace=wrap;html=1;fontFamily=Helvetica;fontSize=11;labelBackgroundColor=#FFF2CC;fillColor=#fff2cc;strokeColor=default;" vertex="1" parent="1">
          <mxGeometry x="1127.5" y="613" width="280" height="40" as="geometry" />
        </mxCell>
        <mxCell id="fr2JG_WPuw4Xb1J1Nvzu-51" value="" style="shape=table;startSize=0;container=1;collapsible=0;childLayout=tableLayout;rounded=0;strokeColor=default;align=center;verticalAlign=middle;fontFamily=Helvetica;fontSize=11;fontColor=default;labelBackgroundColor=#FFF2CC;fillColor=#FFFFFF;" vertex="1" parent="1">
          <mxGeometry x="1441" y="188" width="158" height="143.1" as="geometry" />
        </mxCell>
        <mxCell id="fr2JG_WPuw4Xb1J1Nvzu-52" value="" style="shape=tableRow;horizontal=0;startSize=0;swimlaneHead=0;swimlaneBody=0;strokeColor=inherit;top=0;left=0;bottom=0;right=0;collapsible=0;dropTarget=0;fillColor=none;points=[[0,0.5],[1,0.5]];portConstraint=eastwest;rounded=0;align=center;verticalAlign=middle;fontFamily=Helvetica;fontSize=11;fontColor=default;labelBackgroundColor=#FFF2CC;" vertex="1" parent="fr2JG_WPuw4Xb1J1Nvzu-51">
          <mxGeometry width="158" height="23" as="geometry" />
        </mxCell>
        <mxCell id="fr2JG_WPuw4Xb1J1Nvzu-53" value="&lt;font style=&quot;font-size: 8px;&quot;&gt;&lt;b&gt;POLICY(prefix)&lt;/b&gt;&lt;/font&gt;" style="shape=partialRectangle;html=1;whiteSpace=wrap;connectable=0;strokeColor=#10739e;overflow=hidden;fillColor=#b1ddf0;top=0;left=0;bottom=0;right=0;pointerEvents=1;rounded=0;align=center;verticalAlign=middle;fontFamily=Helvetica;fontSize=11;labelBackgroundColor=none;" vertex="1" parent="fr2JG_WPuw4Xb1J1Nvzu-52">
          <mxGeometry width="105" height="23" as="geometry">
            <mxRectangle width="105" height="23" as="alternateBounds" />
          </mxGeometry>
        </mxCell>
        <mxCell id="fr2JG_WPuw4Xb1J1Nvzu-54" value="&lt;font style=&quot;font-size: 8px;&quot;&gt;&lt;b&gt;User-Agent&lt;/b&gt;&lt;/font&gt;" style="shape=partialRectangle;html=1;whiteSpace=wrap;connectable=0;strokeColor=#10739e;overflow=hidden;fillColor=#b1ddf0;top=0;left=0;bottom=0;right=0;pointerEvents=1;rounded=0;align=center;verticalAlign=middle;fontFamily=Helvetica;fontSize=11;labelBackgroundColor=none;" vertex="1" parent="fr2JG_WPuw4Xb1J1Nvzu-52">
          <mxGeometry x="105" width="53" height="23" as="geometry">
            <mxRectangle width="53" height="23" as="alternateBounds" />
          </mxGeometry>
        </mxCell>
        <mxCell id="fr2JG_WPuw4Xb1J1Nvzu-55" value="" style="shape=tableRow;horizontal=0;startSize=0;swimlaneHead=0;swimlaneBody=0;strokeColor=inherit;top=0;left=0;bottom=0;right=0;collapsible=0;dropTarget=0;fillColor=none;points=[[0,0.5],[1,0.5]];portConstraint=eastwest;rounded=0;align=center;verticalAlign=middle;fontFamily=Helvetica;fontSize=11;fontColor=default;labelBackgroundColor=#FFF2CC;" vertex="1" parent="fr2JG_WPuw4Xb1J1Nvzu-51">
          <mxGeometry y="23" width="158" height="40" as="geometry" />
        </mxCell>
        <mxCell id="fr2JG_WPuw4Xb1J1Nvzu-56" value="&lt;font style=&quot;font-size: 5px;&quot;&gt;E_UA_POLICY_IPSEC_OMD&lt;/font&gt;" style="shape=partialRectangle;html=1;whiteSpace=wrap;connectable=0;strokeColor=#000000;overflow=hidden;fillColor=#dae8fc;top=0;left=0;bottom=0;right=0;pointerEvents=1;rounded=0;align=center;verticalAlign=middle;fontFamily=Helvetica;fontSize=11;labelBackgroundColor=none;" vertex="1" parent="fr2JG_WPuw4Xb1J1Nvzu-55">
          <mxGeometry width="105" height="40" as="geometry">
            <mxRectangle width="105" height="40" as="alternateBounds" />
          </mxGeometry>
        </mxCell>
        <mxCell id="fr2JG_WPuw4Xb1J1Nvzu-57" value="&lt;font color=&quot;#ff0000&quot; style=&quot;font-size: 5px;&quot;&gt;TTA-VoLTE/2.0 iOS&lt;/font&gt;" style="shape=partialRectangle;html=1;whiteSpace=wrap;connectable=0;strokeColor=#000000;overflow=hidden;fillColor=#dae8fc;top=0;left=0;bottom=0;right=0;pointerEvents=1;rounded=0;align=center;verticalAlign=middle;fontFamily=Helvetica;fontSize=11;labelBackgroundColor=none;" vertex="1" parent="fr2JG_WPuw4Xb1J1Nvzu-55">
          <mxGeometry x="105" width="53" height="40" as="geometry">
            <mxRectangle width="53" height="40" as="alternateBounds" />
          </mxGeometry>
        </mxCell>
        <mxCell id="fr2JG_WPuw4Xb1J1Nvzu-58" value="" style="shape=tableRow;horizontal=0;startSize=0;swimlaneHead=0;swimlaneBody=0;strokeColor=inherit;top=0;left=0;bottom=0;right=0;collapsible=0;dropTarget=0;fillColor=none;points=[[0,0.5],[1,0.5]];portConstraint=eastwest;rounded=0;align=center;verticalAlign=middle;fontFamily=Helvetica;fontSize=11;fontColor=default;labelBackgroundColor=#FFF2CC;" vertex="1" parent="fr2JG_WPuw4Xb1J1Nvzu-51">
          <mxGeometry y="63" width="158" height="40" as="geometry" />
        </mxCell>
        <mxCell id="fr2JG_WPuw4Xb1J1Nvzu-59" value="&lt;font style=&quot;font-size: 5px;&quot;&gt;E_UA_POLICY_IPSEC_OFF_&lt;/font&gt;&lt;span style=&quot;font-size: 5px; background-color: initial;&quot;&gt;EALG_NULL&lt;/span&gt;" style="shape=partialRectangle;html=1;whiteSpace=wrap;connectable=0;strokeColor=#000000;overflow=hidden;fillColor=#CCE5FF;top=0;left=0;bottom=0;right=0;pointerEvents=1;rounded=0;align=center;verticalAlign=middle;fontFamily=Helvetica;fontSize=11;labelBackgroundColor=none;" vertex="1" parent="fr2JG_WPuw4Xb1J1Nvzu-58">
          <mxGeometry width="105" height="40" as="geometry">
            <mxRectangle width="105" height="40" as="alternateBounds" />
          </mxGeometry>
        </mxCell>
        <mxCell id="fr2JG_WPuw4Xb1J1Nvzu-60" value="&lt;font color=&quot;#ff0000&quot; style=&quot;font-size: 5px;&quot;&gt;&lt;b&gt;TTA-VoLTE/2.0 iOS/15.5&lt;/b&gt;&lt;/font&gt;" style="shape=partialRectangle;html=1;whiteSpace=wrap;connectable=0;strokeColor=default;overflow=hidden;fillColor=#CCE5FF;top=0;left=0;bottom=0;right=0;pointerEvents=1;rounded=0;align=center;verticalAlign=middle;fontFamily=Helvetica;fontSize=11;labelBackgroundColor=none;" vertex="1" parent="fr2JG_WPuw4Xb1J1Nvzu-58">
          <mxGeometry x="105" width="53" height="40" as="geometry">
            <mxRectangle width="53" height="40" as="alternateBounds" />
          </mxGeometry>
        </mxCell>
        <mxCell id="fr2JG_WPuw4Xb1J1Nvzu-61" value="" style="shape=tableRow;horizontal=0;startSize=0;swimlaneHead=0;swimlaneBody=0;strokeColor=inherit;top=0;left=0;bottom=0;right=0;collapsible=0;dropTarget=0;fillColor=none;points=[[0,0.5],[1,0.5]];portConstraint=eastwest;rounded=0;align=center;verticalAlign=middle;fontFamily=Helvetica;fontSize=11;fontColor=default;labelBackgroundColor=#FFF2CC;" vertex="1" parent="fr2JG_WPuw4Xb1J1Nvzu-51">
          <mxGeometry y="103" width="158" height="40" as="geometry" />
        </mxCell>
        <mxCell id="fr2JG_WPuw4Xb1J1Nvzu-62" value="&lt;font style=&quot;font-size: 5px;&quot;&gt;E_UA_POLICY_IPSEC_ACCEPT&lt;/font&gt;" style="shape=partialRectangle;html=1;whiteSpace=wrap;connectable=0;strokeColor=#000000;overflow=hidden;fillColor=#dae8fc;top=0;left=0;bottom=0;right=0;pointerEvents=1;rounded=0;align=center;verticalAlign=middle;fontFamily=Helvetica;fontSize=11;labelBackgroundColor=none;" vertex="1" parent="fr2JG_WPuw4Xb1J1Nvzu-61">
          <mxGeometry width="105" height="40" as="geometry">
            <mxRectangle width="105" height="40" as="alternateBounds" />
          </mxGeometry>
        </mxCell>
        <mxCell id="fr2JG_WPuw4Xb1J1Nvzu-63" value="&lt;font style=&quot;font-size: 5px;&quot;&gt;TTA-VoLTE/2.0 iOS/13.1&lt;/font&gt;" style="shape=partialRectangle;html=1;whiteSpace=wrap;connectable=0;strokeColor=#000000;overflow=hidden;fillColor=#dae8fc;top=0;left=0;bottom=0;right=0;pointerEvents=1;rounded=0;align=center;verticalAlign=middle;fontFamily=Helvetica;fontSize=11;labelBackgroundColor=none;" vertex="1" parent="fr2JG_WPuw4Xb1J1Nvzu-61">
          <mxGeometry x="105" width="53" height="40" as="geometry">
            <mxRectangle width="53" height="40" as="alternateBounds" />
          </mxGeometry>
        </mxCell>
        <mxCell id="fr2JG_WPuw4Xb1J1Nvzu-65" value="&lt;span style=&quot;&quot;&gt;[User-Agent Policy]&lt;/span&gt;" style="text;html=1;align=center;verticalAlign=middle;whiteSpace=wrap;rounded=0;fontFamily=Helvetica;fontSize=11;fontColor=default;labelBackgroundColor=#FFFFFF;" vertex="1" parent="1">
          <mxGeometry x="1439" y="158" width="97" height="30" as="geometry" />
        </mxCell>
        <mxCell id="fr2JG_WPuw4Xb1J1Nvzu-121" value="&lt;span style=&quot;&quot;&gt;[ROAMING_INFO DB]&lt;/span&gt;" style="text;html=1;align=center;verticalAlign=middle;whiteSpace=wrap;rounded=0;fontFamily=Helvetica;fontSize=11;fontColor=default;labelBackgroundColor=#FFFFFF;" vertex="1" parent="1">
          <mxGeometry x="1439" y="336.9" width="112" height="30" as="geometry" />
        </mxCell>
        <mxCell id="fr2JG_WPuw4Xb1J1Nvzu-123" value="" style="shape=table;startSize=0;container=1;collapsible=0;childLayout=tableLayout;rounded=0;strokeColor=default;align=center;verticalAlign=middle;fontFamily=Helvetica;fontSize=11;fontColor=default;labelBackgroundColor=none;fillColor=#fff2cc;strokeWidth=1;" vertex="1" parent="1">
          <mxGeometry x="1441" y="364" width="120" height="40" as="geometry" />
        </mxCell>
        <mxCell id="fr2JG_WPuw4Xb1J1Nvzu-124" value="" style="shape=tableRow;horizontal=0;startSize=0;swimlaneHead=0;swimlaneBody=0;strokeColor=inherit;top=0;left=0;bottom=0;right=0;collapsible=0;dropTarget=0;fillColor=none;points=[[0,0.5],[1,0.5]];portConstraint=eastwest;rounded=0;align=center;verticalAlign=middle;fontFamily=Helvetica;fontSize=11;fontColor=default;labelBackgroundColor=none;" vertex="1" parent="fr2JG_WPuw4Xb1J1Nvzu-123">
          <mxGeometry width="120" height="20" as="geometry" />
        </mxCell>
        <mxCell id="fr2JG_WPuw4Xb1J1Nvzu-125" value="mcc_mnc" style="shape=partialRectangle;html=1;whiteSpace=wrap;connectable=0;strokeColor=#0e8088;overflow=hidden;fillColor=#b0e3e6;top=0;left=0;bottom=0;right=0;pointerEvents=1;rounded=0;align=center;verticalAlign=middle;fontFamily=Helvetica;fontSize=11;labelBackgroundColor=none;" vertex="1" parent="fr2JG_WPuw4Xb1J1Nvzu-124">
          <mxGeometry width="60" height="20" as="geometry">
            <mxRectangle width="60" height="20" as="alternateBounds" />
          </mxGeometry>
        </mxCell>
        <mxCell id="fr2JG_WPuw4Xb1J1Nvzu-126" value="" style="shape=partialRectangle;html=1;whiteSpace=wrap;connectable=0;strokeColor=#0e8088;overflow=hidden;fillColor=#b0e3e6;top=0;left=0;bottom=0;right=0;pointerEvents=1;rounded=0;align=center;verticalAlign=middle;fontFamily=Helvetica;fontSize=11;labelBackgroundColor=none;strokeWidth=2;" vertex="1" parent="fr2JG_WPuw4Xb1J1Nvzu-124">
          <mxGeometry x="60" width="60" height="20" as="geometry">
            <mxRectangle width="60" height="20" as="alternateBounds" />
          </mxGeometry>
        </mxCell>
        <mxCell id="fr2JG_WPuw4Xb1J1Nvzu-128" value="" style="shape=tableRow;horizontal=0;startSize=0;swimlaneHead=0;swimlaneBody=0;strokeColor=inherit;top=0;left=0;bottom=0;right=0;collapsible=0;dropTarget=0;fillColor=none;points=[[0,0.5],[1,0.5]];portConstraint=eastwest;rounded=0;align=center;verticalAlign=middle;fontFamily=Helvetica;fontSize=11;fontColor=default;labelBackgroundColor=#FFF2CC;" vertex="1" parent="fr2JG_WPuw4Xb1J1Nvzu-123">
          <mxGeometry y="20" width="120" height="20" as="geometry" />
        </mxCell>
        <mxCell id="fr2JG_WPuw4Xb1J1Nvzu-129" value="&lt;font color=&quot;#ff0000&quot;&gt;&lt;b&gt;23415&lt;/b&gt;&lt;/font&gt;" style="shape=partialRectangle;html=1;whiteSpace=wrap;connectable=0;strokeColor=#6c8ebf;overflow=hidden;fillColor=#dae8fc;top=0;left=0;bottom=0;right=0;pointerEvents=1;rounded=0;align=center;verticalAlign=middle;fontFamily=Helvetica;fontSize=11;labelBackgroundColor=none;" vertex="1" parent="fr2JG_WPuw4Xb1J1Nvzu-128">
          <mxGeometry width="60" height="20" as="geometry">
            <mxRectangle width="60" height="20" as="alternateBounds" />
          </mxGeometry>
        </mxCell>
        <mxCell id="fr2JG_WPuw4Xb1J1Nvzu-130" value="" style="shape=partialRectangle;html=1;whiteSpace=wrap;connectable=0;strokeColor=#6c8ebf;overflow=hidden;fillColor=#dae8fc;top=0;left=0;bottom=0;right=0;pointerEvents=1;rounded=0;align=center;verticalAlign=middle;fontFamily=Helvetica;fontSize=11;labelBackgroundColor=none;" vertex="1" parent="fr2JG_WPuw4Xb1J1Nvzu-128">
          <mxGeometry x="60" width="60" height="20" as="geometry">
            <mxRectangle width="60" height="20" as="alternateBounds" />
          </mxGeometry>
        </mxCell>
        <mxCell id="fr2JG_WPuw4Xb1J1Nvzu-136" value="act_ipsec" style="shape=partialRectangle;html=1;whiteSpace=wrap;connectable=0;strokeColor=#0e8088;overflow=hidden;fillColor=#b0e3e6;top=0;left=0;bottom=0;right=0;pointerEvents=1;rounded=0;align=center;verticalAlign=middle;fontFamily=Helvetica;fontSize=11;labelBackgroundColor=none;strokeWidth=2;" vertex="1" parent="1">
          <mxGeometry x="1501" y="364" width="60" height="20" as="geometry">
            <mxRectangle width="60" height="20" as="alternateBounds" />
          </mxGeometry>
        </mxCell>
        <mxCell id="fr2JG_WPuw4Xb1J1Nvzu-138" value="&lt;font color=&quot;#ff0000&quot;&gt;&lt;b&gt;0(OFF)&lt;/b&gt;&lt;/font&gt;" style="shape=partialRectangle;html=1;whiteSpace=wrap;connectable=0;strokeColor=#6c8ebf;overflow=hidden;fillColor=#dae8fc;top=0;left=0;bottom=0;right=0;pointerEvents=1;rounded=0;align=center;verticalAlign=middle;fontFamily=Helvetica;fontSize=11;labelBackgroundColor=none;" vertex="1" parent="1">
          <mxGeometry x="1501" y="384" width="60" height="20" as="geometry">
            <mxRectangle width="60" height="20" as="alternateBounds" />
          </mxGeometry>
        </mxCell>
        <mxCell id="fr2JG_WPuw4Xb1J1Nvzu-140" value="S-CSCF" style="rounded=0;whiteSpace=wrap;html=1;" vertex="1" parent="1">
          <mxGeometry x="1227.5" y="80" width="80" height="40" as="geometry" />
        </mxCell>
      </root>
    </mxGraphModel>
  </diagram>
</mxfile>
